<?xml version="1.0" standalone="no"?>
<!DOCTYPE svg PUBLIC "-//W3C//DTD SVG 20010904//EN"
        "http://www.w3.org/TR/2001/REC-SVG-20010904/DTD/svg10.dtd">
<svg version="1.0" xmlns="http://www.w3.org/2000/svg"
     width="900.000000pt" height="900.000000pt" viewBox="0 0 900.000000 900.000000"
     preserveAspectRatio="xMidYMid meet">
    <metadata>
        Created by potrace 1.11, written by Peter Selinger 2001-2013
    </metadata>
    <g transform="translate(0.000000,900.000000) scale(0.100000,-0.100000)"
       fill="#000000" stroke="none">
        <path d="M1347 7534 c-1 -1 -24 -5 -52 -8 -203 -22 -367 -148 -430 -332 -52
-152 -54 -338 -4 -564 11 -52 22 -103 24 -113 7 -33 96 -291 115 -332 10 -22
32 -74 50 -115 47 -108 158 -329 225 -445 31 -55 66 -116 77 -135 11 -19 29
-47 39 -62 11 -14 19 -29 19 -32 0 -3 20 -35 45 -72 25 -36 45 -67 45 -69 0
-9 215 -317 318 -455 95 -127 342 -441 362 -460 3 -3 50 -57 105 -120 81 -94
255 -290 275 -310 3 -3 36 -38 74 -77 63 -66 68 -74 54 -90 -63 -76 -322 -550
-416 -763 -51 -117 -142 -369 -157 -434 -2 -12 -9 -39 -15 -61 -16 -62 -22
-91 -37 -195 -2 -14 -5 -78 -7 -142 -9 -326 122 -525 393 -600 87 -24 295 -29
391 -10 30 6 71 13 90 16 19 3 62 13 95 22 33 8 69 18 80 20 27 7 38 10 55 17
8 3 58 20 110 38 52 18 118 42 145 55 28 12 93 41 145 64 105 47 340 167 458
236 93 53 83 47 207 126 55 35 104 65 109 67 6 2 19 12 30 23 11 10 26 18 33
18 7 0 13 4 13 9 0 5 9 12 19 16 17 5 103 -45 233 -136 15 -10 29 -19 32 -19
2 0 33 -18 67 -40 148 -91 430 -241 579 -308 124 -55 146 -64 160 -67 8 -2 60
-21 115 -41 117 -43 127 -46 140 -50 65 -18 128 -34 149 -38 14 -3 34 -7 44
-10 23 -7 83 -16 165 -25 237 -26 444 27 561 143 130 131 180 328 152 595 -17
156 -75 373 -156 576 -82 208 -228 497 -364 724 -31 51 -56 97 -56 102 0 5 -4
9 -8 9 -7 0 -15 14 -50 81 -1 4 28 38 65 76 37 38 86 90 107 114 39 44 182
202 201 223 6 6 33 38 60 71 28 33 52 62 55 65 14 13 192 232 236 290 27 36
51 67 54 70 12 11 103 133 208 280 61 85 116 160 122 167 5 7 10 14 10 17 0 3
31 52 68 108 213 322 394 660 516 965 31 78 59 151 61 163 2 11 7 25 10 30 3
5 8 18 10 27 3 10 13 50 24 89 11 40 22 85 25 100 3 16 10 50 15 75 22 103 29
270 17 359 -12 78 -12 79 -35 143 -29 85 -62 135 -125 195 -77 73 -167 114
-301 138 -79 14 -237 10 -350 -10 -16 -3 -46 -8 -65 -11 -19 -3 -75 -17 -125
-31 -49 -14 -98 -27 -108 -29 -9 -2 -22 -7 -27 -10 -5 -3 -18 -8 -27 -10 -25
-5 -235 -87 -318 -125 -72 -32 -298 -144 -325 -161 -8 -5 -69 -40 -135 -77
-168 -95 -193 -111 -414 -258 -159 -106 -327 -224 -386 -272 -5 -4 -28 -21
-50 -37 -22 -16 -74 -57 -116 -90 -42 -33 -93 -73 -115 -90 -52 -41 -343 -285
-369 -310 -11 -11 -56 -51 -99 -90 -44 -38 -86 -78 -95 -87 -22 -26 -31 -23
-82 25 -100 93 -234 212 -309 273 -19 16 -37 31 -40 34 -4 5 -205 170 -235
193 -5 4 -21 17 -35 28 -14 12 -77 60 -140 107 -63 47 -119 90 -125 94 -45 36
-135 99 -308 214 -111 74 -207 139 -214 144 -7 6 -15 10 -18 10 -3 0 -31 16
-61 35 -30 19 -58 35 -62 35 -4 0 -13 5 -20 12 -18 18 -149 89 -344 187 -225
113 -536 236 -648 257 -14 3 -41 9 -61 14 -47 13 -134 30 -184 36 -40 5 -234
12 -238 8z"/>
    </g>
</svg>
